# 3ds Max Wavefront OBJ Exporter v0.97b - (c)2007 guruware
# File Created: 10.07.2011 18:00:49

#
# object Plane01
#

v -1.0 1.0 0.0
v 1.0 1.0 0.0
v -1.0 -1.0 0.0
v 1.0 -1.0 0.0
# 4 vertices

vn 0.000000000000 -0.000000000000 1.000000000000
vn 0.000000000000 -0.000000000000 1.000000000000
vn 0.000000000000 -0.000000000000 1.000000000000
vn 0.000000000000 -0.000000000000 1.000000000000
vn 0.000000000000 -0.000000000000 1.000000000000
vn 0.000000000000 -0.000000000000 1.000000000000
# 6 vertex normals

#vt 0.002247691154 0.002248764038 0.500000000000
#vt 4.497751235962 0.002247691154 0.500000000000
#vt 0.002248764038 4.497752189636 0.500000000000
#vt 4.497752189636 4.497751235962 0.500000000000

vt 0.01 0.01 0.0
vt 1.0 0.01 0.0
vt 0.01 1.0 0.0
vt 1.0 1.0 0.0
# 4 texture coords

g Plane01
f 4/4/3 1/1/2 3/3/1
f 1/1/6 4/4/5 2/2/4
# 2 faces

